<?xml version="1.0" standalone="no"?>
<!DOCTYPE svg PUBLIC "-//W3C//DTD SVG 20010904//EN"
 "http://www.w3.org/TR/2001/REC-SVG-20010904/DTD/svg10.dtd">
<svg version="1.0" xmlns="http://www.w3.org/2000/svg"
 width="512.000000pt" height="512.000000pt" viewBox="0 0 512.000000 512.000000"
 preserveAspectRatio="xMidYMid meet">
<metadata>
Created by potrace 1.11, written by Peter Selinger 2001-2013
</metadata>
<g transform="translate(0.000000,512.000000) scale(0.100000,-0.100000)"
fill="#000000" stroke="none">
<path d="M2333 4606 c-36 -16 -63 -61 -63 -104 0 -15 33 -143 74 -283 40 -140
72 -257 69 -261 -2 -5 -57 -8 -122 -8 l-118 0 -63 95 -63 95 -98 0 c-95 0
-100 -1 -131 -29 l-33 -29 -3 -336 c-2 -288 -1 -340 13 -366 24 -46 61 -60
163 -60 l89 0 63 95 63 95 124 0 c114 0 124 -1 119 -17 -66 -219 -146 -513
-146 -536 0 -41 28 -84 67 -102 25 -12 60 -15 153 -13 l122 3 170 315 c93 173
173 319 178 323 4 5 80 8 169 8 144 -2 165 0 211 20 130 56 186 204 124 327
-57 115 -133 145 -354 140 l-152 -3 -173 320 -173 320 -124 2 c-88 2 -132 -1
-155 -11z m348 -491 l174 -325 205 7 c193 5 206 5 229 -14 32 -26 31 -70 -2
-99 -25 -22 -30 -22 -229 -17 l-203 5 -174 -326 c-149 -278 -177 -326 -196
-326 -22 0 -20 11 71 323 51 177 94 328 94 335 0 9 -63 12 -285 12 l-284 0
-52 -77 c-28 -43 -56 -82 -60 -88 -5 -5 -9 87 -9 210 l0 220 56 -87 56 -88
289 0 c159 0 289 3 289 7 0 9 -181 636 -187 646 -2 4 7 7 20 7 22 0 43 -34
198 -325z"/>
<path d="M1536 3675 c-101 -32 -249 -85 -259 -95 -5 -4 10 -52 33 -107 l41
-100 87 32 c48 18 124 43 170 56 51 15 82 29 82 37 0 8 -7 37 -14 65 -8 29
-20 71 -26 95 -6 23 -16 42 -23 41 -7 0 -47 -11 -91 -24z"/>
<path d="M3540 3528 c-18 -51 -35 -98 -37 -104 -3 -7 27 -24 69 -40 40 -15
115 -47 167 -71 52 -24 95 -42 96 -41 6 6 95 188 95 193 0 11 -324 155 -350
155 -4 0 -22 -42 -40 -92z"/>
<path d="M781 3335 c-67 -41 -139 -87 -159 -102 -20 -15 -38 -28 -40 -29 -2
-1 27 -43 63 -93 l67 -91 47 35 c26 19 95 63 153 98 l106 63 -50 89 c-27 50
-53 93 -57 98 -4 4 -62 -27 -130 -68z"/>
<path d="M4212 3178 l-61 -91 77 -55 c42 -31 107 -79 143 -109 36 -29 68 -53
71 -53 2 0 37 38 76 84 l71 84 -102 79 c-115 89 -202 153 -209 153 -3 0 -32
-41 -66 -92z"/>
<path d="M170 2853 c-53 -54 -112 -116 -133 -139 l-37 -40 86 -73 c47 -41 89
-70 93 -65 4 5 60 64 125 131 l119 122 -73 81 c-40 44 -75 80 -79 80 -3 0 -49
-44 -101 -97z"/>
<path d="M4787 2685 l-79 -74 79 -93 c43 -51 94 -114 112 -140 19 -27 36 -48
39 -48 11 0 172 123 172 132 0 17 -226 299 -239 298 -3 -1 -41 -34 -84 -75z"/>
<path d="M2345 2493 c-634 -42 -1203 -374 -1552 -904 -81 -124 -181 -333 -227
-474 -57 -174 -83 -317 -100 -548 l-5 -67 114 0 115 0 0 63 c0 58 16 197 24
204 6 7 143 -40 219 -75 l79 -35 -7 -61 c-4 -34 -9 -69 -11 -78 -5 -16 5 -18
109 -18 l114 0 13 91 c11 80 10 96 -4 134 -35 90 -162 174 -351 230 -49 15
-95 29 -102 31 -10 2 -9 13 1 46 148 476 527 896 983 1092 84 36 273 99 279
94 2 -2 -8 -35 -22 -73 -28 -76 -74 -364 -74 -461 0 -186 135 -289 434 -333
l111 -16 6 -160 c5 -151 7 -166 43 -270 43 -127 107 -253 174 -342 l47 -63
168 0 169 0 -49 39 c-61 49 -140 132 -182 194 -92 135 -158 340 -147 457 8 86
-7 199 -34 256 -31 63 -79 92 -181 110 -46 8 -118 21 -159 28 -95 17 -168 51
-176 81 -8 33 42 365 65 424 22 58 71 139 101 166 17 16 36 17 192 12 187 -5
296 -21 454 -67 666 -192 1165 -762 1269 -1450 8 -52 15 -123 15 -157 0 -58
-2 -63 -27 -77 -26 -14 -18 -15 115 -16 l142 0 0 34 c0 154 -45 403 -106 586
-287 864 -1132 1433 -2039 1373z"/>
</g>
</svg>
